<svg xmlns="http://www.w3.org/2000/svg" version="1.1" xmlns:xlink="http://www.w3.org/1999/xlink" xmlns:svgjs="http://svgjs.com/svgjs" width="1440" height="560" preserveAspectRatio="none" viewBox="0 0 1440 560"><g mask="url(&quot;#SvgjsMask1106&quot;)" fill="none"><g mask="url(&quot;#SvgjsMask1107&quot;)"><path d="M1287.5 287.5L1262.5 312.5L1237.5 312.5L1212.5 312.5M1312.5 287.5L1287.5 312.5M1337.5 287.5L1312.5 312.5L1287.5 337.5L1262.5 337.5M1462.5 287.5L1437.5 287.5L1412.5 287.5L1387.5 287.5L1362.5 287.5L1337.5 287.5L1312.5 287.5L1287.5 287.5L1262.5 287.5L1237.5 287.5L1212.5 287.5" stroke="#dd1133" stroke-width="4.17"></path><path d="M1206.25 287.5 a6.25 6.25 0 1 0 12.5 0 a6.25 6.25 0 1 0 -12.5 0zM1206.25 312.5 a6.25 6.25 0 1 0 12.5 0 a6.25 6.25 0 1 0 -12.5 0zM1281.25 312.5 a6.25 6.25 0 1 0 12.5 0 a6.25 6.25 0 1 0 -12.5 0zM1256.25 337.5 a6.25 6.25 0 1 0 12.5 0 a6.25 6.25 0 1 0 -12.5 0z" fill="#dd1133"></path><path d="M1187.5 262.5L1162.5 287.5L1137.5 287.5L1112.5 287.5M1462.5 262.5L1437.5 262.5L1412.5 262.5L1387.5 262.5L1362.5 262.5L1337.5 262.5L1312.5 262.5L1287.5 262.5L1262.5 262.5L1237.5 262.5L1212.5 262.5L1187.5 262.5L1162.5 262.5" stroke="#dd1133" stroke-width="4.17"></path><path d="M1156.25 262.5 a6.25 6.25 0 1 0 12.5 0 a6.25 6.25 0 1 0 -12.5 0zM1106.25 287.5 a6.25 6.25 0 1 0 12.5 0 a6.25 6.25 0 1 0 -12.5 0z" fill="#dd1133"></path><path d="M1387.5 312.5L1362.5 337.5L1337.5 337.5L1312.5 337.5M1462.5 312.5L1437.5 312.5L1412.5 312.5L1387.5 312.5L1362.5 312.5" stroke="#3a7cc3" stroke-width="4.17"></path><path d="M1356.25 312.5 a6.25 6.25 0 1 0 12.5 0 a6.25 6.25 0 1 0 -12.5 0zM1306.25 337.5 a6.25 6.25 0 1 0 12.5 0 a6.25 6.25 0 1 0 -12.5 0z" fill="#3a7cc3"></path><path d="M887.5 237.5L862.5 262.5L837.5 262.5L812.5 262.5M1312.5 237.5L1287.5 212.5M1187.5 237.5L1162.5 212.5L1137.5 212.5L1112.5 212.5L1087.5 212.5M912.5 237.5L887.5 212.5L862.5 212.5M1262.5 237.5L1237.5 212.5L1212.5 187.5L1187.5 187.5L1162.5 187.5M937.5 237.5L912.5 262.5M1462.5 237.5L1437.5 237.5L1412.5 237.5L1387.5 237.5L1362.5 237.5L1337.5 237.5L1312.5 237.5L1287.5 237.5L1262.5 237.5L1237.5 237.5L1212.5 237.5L1187.5 237.5L1162.5 237.5L1137.5 237.5L1112.5 237.5L1087.5 237.5L1062.5 237.5L1037.5 237.5L1012.5 237.5L987.5 237.5L962.5 237.5L937.5 237.5L912.5 237.5L887.5 237.5L862.5 237.5" stroke="#3a7cc3" stroke-width="4.17"></path><path d="M856.25 237.5 a6.25 6.25 0 1 0 12.5 0 a6.25 6.25 0 1 0 -12.5 0zM806.25 262.5 a6.25 6.25 0 1 0 12.5 0 a6.25 6.25 0 1 0 -12.5 0zM1281.25 212.5 a6.25 6.25 0 1 0 12.5 0 a6.25 6.25 0 1 0 -12.5 0zM1081.25 212.5 a6.25 6.25 0 1 0 12.5 0 a6.25 6.25 0 1 0 -12.5 0zM856.25 212.5 a6.25 6.25 0 1 0 12.5 0 a6.25 6.25 0 1 0 -12.5 0zM1156.25 187.5 a6.25 6.25 0 1 0 12.5 0 a6.25 6.25 0 1 0 -12.5 0zM906.25 262.5 a6.25 6.25 0 1 0 12.5 0 a6.25 6.25 0 1 0 -12.5 0z" fill="#3a7cc3"></path><path d="M962.5 412.5L937.5 387.5M1287.5 387.5L1262.5 362.5L1237.5 362.5L1212.5 362.5L1187.5 362.5M1112.5 437.5L1087.5 412.5L1062.5 412.5L1037.5 412.5L1012.5 412.5M1162.5 412.5L1137.5 437.5M1312.5 362.5L1287.5 362.5M937.5 412.5L912.5 412.5L887.5 412.5M1462.5 337.5L1437.5 337.5L1412.5 337.5L1387.5 362.5L1362.5 362.5L1337.5 362.5L1312.5 362.5L1287.5 387.5L1262.5 387.5L1237.5 387.5L1212.5 387.5L1187.5 387.5L1162.5 412.5L1137.5 412.5L1112.5 437.5L1087.5 437.5L1062.5 437.5L1037.5 437.5L1012.5 437.5L987.5 412.5L962.5 412.5L937.5 412.5L912.5 387.5L887.5 387.5" stroke="#dd1133" stroke-width="4.17"></path><path d="M881.25 387.5 a6.25 6.25 0 1 0 12.5 0 a6.25 6.25 0 1 0 -12.5 0zM931.25 387.5 a6.25 6.25 0 1 0 12.5 0 a6.25 6.25 0 1 0 -12.5 0zM1181.25 362.5 a6.25 6.25 0 1 0 12.5 0 a6.25 6.25 0 1 0 -12.5 0zM1006.25 412.5 a6.25 6.25 0 1 0 12.5 0 a6.25 6.25 0 1 0 -12.5 0zM1131.25 437.5 a6.25 6.25 0 1 0 12.5 0 a6.25 6.25 0 1 0 -12.5 0zM1281.25 362.5 a6.25 6.25 0 1 0 12.5 0 a6.25 6.25 0 1 0 -12.5 0zM881.25 412.5 a6.25 6.25 0 1 0 12.5 0 a6.25 6.25 0 1 0 -12.5 0z" fill="#dd1133"></path><path d="M1437.5 212.5L1412.5 187.5L1387.5 187.5M1462.5 212.5L1437.5 212.5L1412.5 212.5L1387.5 212.5" stroke="#dd1133" stroke-width="4.17"></path><path d="M1381.25 212.5 a6.25 6.25 0 1 0 12.5 0 a6.25 6.25 0 1 0 -12.5 0zM1381.25 187.5 a6.25 6.25 0 1 0 12.5 0 a6.25 6.25 0 1 0 -12.5 0z" fill="#dd1133"></path><path d="M1012.5 487.5L987.5 462.5M962.5 487.5L937.5 462.5M912.5 487.5L887.5 487.5L862.5 487.5L837.5 487.5M1112.5 462.5L1087.5 462.5L1062.5 462.5L1037.5 462.5L1012.5 462.5M1187.5 437.5L1162.5 437.5M1462.5 362.5L1437.5 362.5L1412.5 362.5L1387.5 387.5L1362.5 387.5L1337.5 387.5L1312.5 387.5L1287.5 412.5L1262.5 412.5L1237.5 412.5L1212.5 412.5L1187.5 437.5L1162.5 462.5L1137.5 462.5L1112.5 462.5L1087.5 487.5L1062.5 487.5L1037.5 487.5L1012.5 487.5L987.5 487.5L962.5 487.5L937.5 487.5L912.5 487.5L887.5 512.5L862.5 512.5" stroke="#3a7cc3" stroke-width="4.17"></path><path d="M856.25 512.5 a6.25 6.25 0 1 0 12.5 0 a6.25 6.25 0 1 0 -12.5 0zM981.25 462.5 a6.25 6.25 0 1 0 12.5 0 a6.25 6.25 0 1 0 -12.5 0zM931.25 462.5 a6.25 6.25 0 1 0 12.5 0 a6.25 6.25 0 1 0 -12.5 0zM831.25 487.5 a6.25 6.25 0 1 0 12.5 0 a6.25 6.25 0 1 0 -12.5 0zM1006.25 462.5 a6.25 6.25 0 1 0 12.5 0 a6.25 6.25 0 1 0 -12.5 0zM1156.25 437.5 a6.25 6.25 0 1 0 12.5 0 a6.25 6.25 0 1 0 -12.5 0z" fill="#3a7cc3"></path><path d="M1412.5 137.5L1387.5 162.5L1362.5 162.5L1337.5 162.5M1362.5 137.5L1337.5 112.5L1312.5 112.5M1387.5 137.5L1362.5 112.5L1337.5 87.5L1312.5 87.5L1287.5 87.5M1462.5 187.5L1437.5 162.5L1412.5 137.5L1387.5 137.5L1362.5 137.5L1337.5 137.5L1312.5 137.5" stroke="#dd1133" stroke-width="4.17"></path><path d="M1306.25 137.5 a6.25 6.25 0 1 0 12.5 0 a6.25 6.25 0 1 0 -12.5 0zM1331.25 162.5 a6.25 6.25 0 1 0 12.5 0 a6.25 6.25 0 1 0 -12.5 0zM1306.25 112.5 a6.25 6.25 0 1 0 12.5 0 a6.25 6.25 0 1 0 -12.5 0zM1281.25 87.5 a6.25 6.25 0 1 0 12.5 0 a6.25 6.25 0 1 0 -12.5 0z" fill="#dd1133"></path><path d="M1237.5 437.5L1212.5 437.5M1137.5 487.5L1112.5 512.5M1212.5 462.5L1187.5 487.5L1162.5 512.5L1137.5 512.5M1337.5 412.5L1312.5 437.5L1287.5 462.5L1262.5 462.5L1237.5 462.5L1212.5 487.5M1362.5 412.5L1337.5 437.5L1312.5 462.5L1287.5 487.5M1462.5 387.5L1437.5 387.5L1412.5 387.5L1387.5 412.5L1362.5 412.5L1337.5 412.5L1312.5 412.5L1287.5 437.5L1262.5 437.5L1237.5 437.5L1212.5 462.5L1187.5 462.5L1162.5 487.5L1137.5 487.5L1112.5 487.5L1087.5 512.5L1062.5 512.5L1037.5 512.5L1012.5 512.5L987.5 512.5L962.5 512.5L937.5 512.5L912.5 512.5" stroke="#dd1133" stroke-width="4.17"></path><path d="M906.25 512.5 a6.25 6.25 0 1 0 12.5 0 a6.25 6.25 0 1 0 -12.5 0zM1206.25 437.5 a6.25 6.25 0 1 0 12.5 0 a6.25 6.25 0 1 0 -12.5 0zM1106.25 512.5 a6.25 6.25 0 1 0 12.5 0 a6.25 6.25 0 1 0 -12.5 0zM1131.25 512.5 a6.25 6.25 0 1 0 12.5 0 a6.25 6.25 0 1 0 -12.5 0zM1206.25 487.5 a6.25 6.25 0 1 0 12.5 0 a6.25 6.25 0 1 0 -12.5 0zM1281.25 487.5 a6.25 6.25 0 1 0 12.5 0 a6.25 6.25 0 1 0 -12.5 0z" fill="#dd1133"></path></g></g><defs><mask id="SvgjsMask1106"><rect width="1440" height="560" fill="#ffffff"></rect></mask><mask id="SvgjsMask1107"><rect width="1440" height="560" fill="white"></rect><path d="M1209.37 287.5 a3.13 3.13 0 1 0 6.26 0 a3.13 3.13 0 1 0 -6.26 0zM1209.37 312.5 a3.13 3.13 0 1 0 6.26 0 a3.13 3.13 0 1 0 -6.26 0zM1284.37 312.5 a3.13 3.13 0 1 0 6.26 0 a3.13 3.13 0 1 0 -6.26 0zM1259.37 337.5 a3.13 3.13 0 1 0 6.26 0 a3.13 3.13 0 1 0 -6.26 0z" fill="black"></path><path d="M1159.37 262.5 a3.13 3.13 0 1 0 6.26 0 a3.13 3.13 0 1 0 -6.26 0zM1109.37 287.5 a3.13 3.13 0 1 0 6.26 0 a3.13 3.13 0 1 0 -6.26 0z" fill="black"></path><path d="M1359.37 312.5 a3.13 3.13 0 1 0 6.26 0 a3.13 3.13 0 1 0 -6.26 0zM1309.37 337.5 a3.13 3.13 0 1 0 6.26 0 a3.13 3.13 0 1 0 -6.26 0z" fill="black"></path><path d="M859.37 237.5 a3.13 3.13 0 1 0 6.26 0 a3.13 3.13 0 1 0 -6.26 0zM809.37 262.5 a3.13 3.13 0 1 0 6.26 0 a3.13 3.13 0 1 0 -6.26 0zM1284.37 212.5 a3.13 3.13 0 1 0 6.26 0 a3.13 3.13 0 1 0 -6.26 0zM1084.37 212.5 a3.13 3.13 0 1 0 6.26 0 a3.13 3.13 0 1 0 -6.26 0zM859.37 212.5 a3.13 3.13 0 1 0 6.26 0 a3.13 3.13 0 1 0 -6.26 0zM1159.37 187.5 a3.13 3.13 0 1 0 6.26 0 a3.13 3.13 0 1 0 -6.26 0zM909.37 262.5 a3.13 3.13 0 1 0 6.26 0 a3.13 3.13 0 1 0 -6.26 0z" fill="black"></path><path d="M884.37 387.5 a3.13 3.13 0 1 0 6.26 0 a3.13 3.13 0 1 0 -6.26 0zM934.37 387.5 a3.13 3.13 0 1 0 6.26 0 a3.13 3.13 0 1 0 -6.26 0zM1184.37 362.5 a3.13 3.13 0 1 0 6.26 0 a3.13 3.13 0 1 0 -6.26 0zM1009.37 412.5 a3.13 3.13 0 1 0 6.26 0 a3.13 3.13 0 1 0 -6.26 0zM1134.37 437.5 a3.13 3.13 0 1 0 6.26 0 a3.13 3.13 0 1 0 -6.26 0zM1284.37 362.5 a3.13 3.13 0 1 0 6.26 0 a3.13 3.13 0 1 0 -6.26 0zM884.37 412.5 a3.13 3.13 0 1 0 6.26 0 a3.13 3.13 0 1 0 -6.26 0z" fill="black"></path><path d="M1384.37 212.5 a3.13 3.13 0 1 0 6.26 0 a3.13 3.13 0 1 0 -6.26 0zM1384.37 187.5 a3.13 3.13 0 1 0 6.26 0 a3.13 3.13 0 1 0 -6.26 0z" fill="black"></path><path d="M859.37 512.5 a3.13 3.13 0 1 0 6.26 0 a3.13 3.13 0 1 0 -6.26 0zM984.37 462.5 a3.13 3.13 0 1 0 6.26 0 a3.13 3.13 0 1 0 -6.26 0zM934.37 462.5 a3.13 3.13 0 1 0 6.26 0 a3.13 3.13 0 1 0 -6.26 0zM834.37 487.5 a3.13 3.13 0 1 0 6.26 0 a3.13 3.13 0 1 0 -6.26 0zM1009.37 462.5 a3.13 3.13 0 1 0 6.26 0 a3.13 3.13 0 1 0 -6.26 0zM1159.37 437.5 a3.13 3.13 0 1 0 6.26 0 a3.13 3.13 0 1 0 -6.26 0z" fill="black"></path><path d="M1309.37 137.5 a3.13 3.13 0 1 0 6.26 0 a3.13 3.13 0 1 0 -6.26 0zM1334.37 162.5 a3.13 3.13 0 1 0 6.26 0 a3.13 3.13 0 1 0 -6.26 0zM1309.37 112.5 a3.13 3.13 0 1 0 6.26 0 a3.13 3.13 0 1 0 -6.26 0zM1284.37 87.5 a3.13 3.13 0 1 0 6.26 0 a3.13 3.13 0 1 0 -6.26 0z" fill="black"></path><path d="M909.37 512.5 a3.13 3.13 0 1 0 6.26 0 a3.13 3.13 0 1 0 -6.26 0zM1209.37 437.5 a3.13 3.13 0 1 0 6.26 0 a3.13 3.13 0 1 0 -6.26 0zM1109.37 512.5 a3.13 3.13 0 1 0 6.26 0 a3.13 3.13 0 1 0 -6.26 0zM1134.37 512.5 a3.13 3.13 0 1 0 6.26 0 a3.13 3.13 0 1 0 -6.26 0zM1209.37 487.5 a3.13 3.13 0 1 0 6.26 0 a3.13 3.13 0 1 0 -6.26 0zM1284.37 487.5 a3.13 3.13 0 1 0 6.26 0 a3.13 3.13 0 1 0 -6.26 0z" fill="black"></path></mask></defs></svg>