<?xml version="1.0" standalone="no"?><svg xmlns="http://www.w3.org/2000/svg" viewBox="0 0 1440 320"><path fill="#00cba9" fill-opacity="1" d="M0,0L26.7,26.7C53.3,53,107,107,160,106.7C213.3,107,267,53,320,53.3C373.3,53,427,107,480,144C533.3,181,587,203,640,218.7C693.3,235,747,245,800,234.7C853.3,224,907,192,960,197.3C1013.3,203,1067,245,1120,224C1173.3,203,1227,117,1280,85.3C1333.3,53,1387,75,1413,85.3L1440,96L1440,320L1413.3,320C1386.7,320,1333,320,1280,320C1226.7,320,1173,320,1120,320C1066.7,320,1013,320,960,320C906.7,320,853,320,800,320C746.7,320,693,320,640,320C586.7,320,533,320,480,320C426.7,320,373,320,320,320C266.7,320,213,320,160,320C106.7,320,53,320,27,320L0,320Z"></path></svg>