<?xml version="1.0" standalone="no"?><svg xmlns="http://www.w3.org/2000/svg" viewBox="0 0 1440 320"><path fill="#e7008a" fill-opacity="1" d="M0,0L20,21.3C40,43,80,85,120,96C160,107,200,85,240,80C280,75,320,85,360,106.7C400,128,440,160,480,160C520,160,560,128,600,138.7C640,149,680,203,720,218.7C760,235,800,213,840,218.7C880,224,920,256,960,245.3C1000,235,1040,181,1080,170.7C1120,160,1160,192,1200,208C1240,224,1280,224,1320,229.3C1360,235,1400,245,1420,250.7L1440,256L1440,320L1420,320C1400,320,1360,320,1320,320C1280,320,1240,320,1200,320C1160,320,1120,320,1080,320C1040,320,1000,320,960,320C920,320,880,320,840,320C800,320,760,320,720,320C680,320,640,320,600,320C560,320,520,320,480,320C440,320,400,320,360,320C320,320,280,320,240,320C200,320,160,320,120,320C80,320,40,320,20,320L0,320Z"></path></svg>